<svg width="236" height="236" viewBox="0 0 236 236" fill="none" xmlns="http://www.w3.org/2000/svg">
<path d="M118 0L134.332 46.4442L169.198 11.6857L163.762 60.6167L210.256 44.4282L184.128 86.1547L233.042 91.7425L191.396 118L233.042 144.257L184.128 149.845L210.256 191.572L163.762 175.383L169.198 224.314L134.332 189.556L118 236L101.668 189.556L66.8017 224.314L72.2383 175.383L25.7439 191.572L51.8725 149.845L2.9585 144.257L44.604 118L2.9585 91.7425L51.8725 86.1547L25.7439 44.4282L72.2383 60.6167L66.8017 11.6857L101.668 46.4442L118 0Z" fill="#D9E8B8"/>
<path d="M76.0396 112.926C74.9654 113.909 73.5917 114.4 71.9185 114.4C69.8482 114.4 68.2206 113.736 67.0357 112.408C65.8508 111.074 65.2584 109.244 65.2584 106.92C65.2584 104.407 65.9322 102.47 67.2798 101.109C68.4517 99.9245 69.9426 99.332 71.7525 99.332C74.1744 99.332 75.9452 100.126 77.065 101.715C77.6835 102.607 78.0155 103.502 78.0611 104.4H75.0533C74.858 103.71 74.6073 103.189 74.3013 102.838C73.7545 102.213 72.9439 101.9 71.8697 101.9C70.7759 101.9 69.9133 102.343 69.2818 103.229C68.6503 104.107 68.3345 105.354 68.3345 106.969C68.3345 108.583 68.6666 109.794 69.3306 110.602C70.0012 111.402 70.8508 111.803 71.8795 111.803C72.9341 111.803 73.7382 111.458 74.2916 110.768C74.5976 110.396 74.8515 109.84 75.0533 109.098H78.0318C77.7714 110.667 77.1073 111.943 76.0396 112.926ZM82.4965 99.6055H85.5043V111.412H92.6332V114H82.4965V99.6055ZM96.6487 99.6055H99.637V114H96.6487V99.6055ZM114.766 112.926C113.691 113.909 112.318 114.4 110.645 114.4C108.574 114.4 106.947 113.736 105.762 112.408C104.577 111.074 103.984 109.244 103.984 106.92C103.984 104.407 104.658 102.47 106.006 101.109C107.178 99.9245 108.669 99.332 110.479 99.332C112.9 99.332 114.671 100.126 115.791 101.715C116.41 102.607 116.742 103.502 116.787 104.4H113.779C113.584 103.71 113.333 103.189 113.027 102.838C112.481 102.213 111.67 101.9 110.596 101.9C109.502 101.9 108.639 102.343 108.008 103.229C107.376 104.107 107.061 105.354 107.061 106.969C107.061 108.583 107.393 109.794 108.057 110.602C108.727 111.402 109.577 111.803 110.606 111.803C111.66 111.803 112.464 111.458 113.018 110.768C113.324 110.396 113.578 109.84 113.779 109.098H116.758C116.497 110.667 115.833 111.943 114.766 112.926ZM133.976 114H130.109L125.666 107.711L124.23 109.186V114H121.271V99.6055H124.23V105.533L129.787 99.6055H133.674L127.775 105.533L133.976 114ZM156.021 99.6055V102.154H151.714V114H148.687V102.154H144.361V99.6055H156.021ZM165.964 114.4C163.907 114.4 162.335 113.84 161.247 112.721C159.789 111.347 159.06 109.368 159.06 106.783C159.06 104.146 159.789 102.167 161.247 100.846C162.335 99.7259 163.907 99.166 165.964 99.166C168.022 99.166 169.594 99.7259 170.681 100.846C172.133 102.167 172.859 104.146 172.859 106.783C172.859 109.368 172.133 111.347 170.681 112.721C169.594 113.84 168.022 114.4 165.964 114.4ZM168.806 110.533C169.503 109.654 169.851 108.404 169.851 106.783C169.851 105.169 169.499 103.922 168.796 103.043C168.1 102.158 167.156 101.715 165.964 101.715C164.773 101.715 163.822 102.154 163.113 103.033C162.403 103.912 162.048 105.162 162.048 106.783C162.048 108.404 162.403 109.654 163.113 110.533C163.822 111.412 164.773 111.852 165.964 111.852C167.156 111.852 168.103 111.412 168.806 110.533ZM82.2954 143.648C81.5011 144.137 80.5246 144.381 79.3657 144.381C77.4582 144.381 75.8957 143.72 74.6782 142.398C73.4087 141.07 72.7739 139.254 72.7739 136.949C72.7739 134.618 73.4152 132.75 74.6977 131.344C75.9803 129.938 77.6763 129.234 79.7856 129.234C81.6151 129.234 83.0832 129.7 84.1899 130.631C85.3032 131.555 85.9412 132.711 86.104 134.098H83.145C82.9171 133.115 82.3605 132.428 81.4751 132.037C80.9803 131.822 80.4302 131.715 79.8247 131.715C78.6658 131.715 77.7121 132.154 76.9634 133.033C76.2212 133.906 75.8501 135.221 75.8501 136.979C75.8501 138.749 76.2537 140.003 77.061 140.738C77.8683 141.474 78.7863 141.842 79.8149 141.842C80.824 141.842 81.6509 141.552 82.2954 140.973C82.9399 140.387 83.3371 139.622 83.4868 138.678H80.1567V136.275H86.1528V144H84.1606L83.8579 142.203C83.2785 142.887 82.7576 143.368 82.2954 143.648ZM91.1937 129.605H94.2015V141.412H101.33V144H91.1937V129.605ZM105.346 129.605H108.334V144H105.346V129.605ZM123.766 129.605V132.154H119.459V144H116.432V132.154H112.105V129.605H123.766ZM137.849 142.926C136.775 143.909 135.402 144.4 133.728 144.4C131.658 144.4 130.03 143.736 128.846 142.408C127.661 141.074 127.068 139.244 127.068 136.92C127.068 134.407 127.742 132.47 129.09 131.109C130.262 129.924 131.752 129.332 133.562 129.332C135.984 129.332 137.755 130.126 138.875 131.715C139.493 132.607 139.825 133.502 139.871 134.4H136.863C136.668 133.71 136.417 133.189 136.111 132.838C135.564 132.213 134.754 131.9 133.68 131.9C132.586 131.9 131.723 132.343 131.092 133.229C130.46 134.107 130.144 135.354 130.144 136.969C130.144 138.583 130.476 139.794 131.14 140.602C131.811 141.402 132.661 141.803 133.689 141.803C134.744 141.803 135.548 141.458 136.101 140.768C136.407 140.396 136.661 139.84 136.863 139.098H139.842C139.581 140.667 138.917 141.943 137.849 142.926ZM152.89 144V137.574H147.265V144H144.287V129.605H147.265V135.094H152.89V129.605H155.879V144H152.89ZM164.65 133.307L163.859 140.025H162.404L161.593 133.307V129.654H164.65V133.307ZM164.572 141.178V144H161.662V141.178H164.572Z" fill="#01100B" fill-opacity="0.54"/>
</svg>
