<svg width="162" height="66" viewBox="0 0 162 66" fill="none" xmlns="http://www.w3.org/2000/svg">
<path d="M48.656 36.92H50.672C49.688 42.392 45.608 44.408 41.768 44.408C36.2 44.408 32.624 40.424 32.624 34.28C32.624 31.16 33.56 28.544 35.312 26.744C36.944 25.088 39.224 24.176 41.768 24.176C46.328 24.176 49.544 26.792 50.552 31.184H48.536C47.504 27.512 44.576 26.144 41.744 26.144C38.24 26.144 34.592 28.472 34.592 34.28C34.592 40.304 38.24 42.44 41.744 42.44C45.416 42.44 47.888 40.472 48.656 36.92ZM61.9959 35.528L66.7239 44.024H64.4199L59.7399 35.528H61.9959ZM66.3159 30.056C66.3159 34.136 63.4359 35.312 61.9959 35.528H55.4199H53.9319V44.024H51.9399V24.608L59.9559 24.584C62.4039 24.584 66.3159 25.976 66.3159 30.056ZM60.3399 33.56C63.0039 33.56 64.3479 32.528 64.3479 30.056C64.3479 27.968 62.4279 26.6 60.3399 26.6H53.9319V33.56H60.3399ZM69.9028 26.48V32.648H79.2388V34.544L69.9028 34.496V42.128H80.9908V44H67.9588V24.584H80.9908V26.48H69.9028ZM94.439 38.432H85.871L83.879 44H81.815L89.087 24.584H91.271L98.543 44H96.431L94.439 38.432ZM90.167 26.408L86.567 36.536H93.767L90.167 26.408ZM114.207 26.48H106.071V44H104.103V26.48H95.9908V24.584H114.207V26.48ZM116.881 26.48V32.648H126.217V34.544L116.881 34.496V42.128H127.969V44H114.937V24.584H127.969V26.48H116.881Z" fill="#D9E8B8"/>
<path d="M161.5 33C161.5 37.378 159.324 41.5969 155.288 45.485C151.25 49.3744 145.381 52.9 138.087 55.8715C123.502 61.8134 103.319 65.5 81 65.5C58.6808 65.5 38.4977 61.8134 23.913 55.8715C16.6194 52.9 10.7501 49.3744 6.71225 45.485C2.67575 41.5969 0.5 37.378 0.5 33C0.5 28.622 2.67575 24.4031 6.71225 20.515C10.7501 16.6256 16.6194 13.1 23.913 10.1285C38.4977 4.1866 58.6808 0.5 81 0.5C103.319 0.5 123.502 4.1866 138.087 10.1285C145.381 13.1 151.25 16.6256 155.288 20.515C159.324 24.4031 161.5 28.622 161.5 33Z" stroke="#D9E8B8"/>
</svg>
