<svg width="162" height="66" viewBox="0 0 162 66" fill="none" xmlns="http://www.w3.org/2000/svg">
<path d="M37.296 36.32V34.424H45.192V44H43.512L43.224 41.864C41.64 43.496 39.408 44.384 36.768 44.384C31.2 44.384 27.624 40.424 27.624 34.28C27.624 31.16 28.56 28.544 30.312 26.744C31.944 25.088 34.224 24.176 36.768 24.176C40.68 24.176 43.824 26.12 45.192 30.44H43.128C42 27.368 39.312 26.144 36.768 26.144C33.24 26.144 29.592 28.424 29.592 34.28C29.592 40.352 33.504 42.416 36.768 42.416C39.384 42.416 43.224 41.336 43.224 36.32H37.296ZM58.2684 38.432H49.7004L47.7084 44H45.6444L52.9164 24.584H55.1004L62.3724 44H60.2604L58.2684 38.432ZM53.9964 26.408L50.3964 36.536H57.5964L53.9964 26.408ZM65.1137 24.584V42.128H76.0817V44H63.1697V24.584H65.1137ZM78.7419 24.584V42.128H89.7099V44H76.7979V24.584H78.7419ZM92.3702 26.48V32.648H101.706V34.544L92.3702 34.496V42.128H103.458V44H90.4262V24.584H103.458V26.48H92.3702ZM115.61 35.528L120.338 44.024H118.034L113.354 35.528H115.61ZM119.93 30.056C119.93 34.136 117.05 35.312 115.61 35.528H109.034H107.546V44.024H105.554V24.608L113.57 24.584C116.018 24.584 119.93 25.976 119.93 30.056ZM113.954 33.56C116.618 33.56 117.962 32.528 117.962 30.056C117.962 27.968 116.042 26.6 113.954 26.6H107.546V33.56H113.954ZM132.031 24.584H134.311L127.831 36.152V44.024H125.863V36.152L119.383 24.584H121.639L126.847 33.848L132.031 24.584Z" fill="#D9E8B8"/>
<path d="M161.5 33C161.5 37.378 159.324 41.5969 155.288 45.485C151.25 49.3744 145.381 52.9 138.087 55.8715C123.502 61.8134 103.319 65.5 81 65.5C58.6808 65.5 38.4977 61.8134 23.913 55.8715C16.6194 52.9 10.7501 49.3744 6.71225 45.485C2.67575 41.5969 0.5 37.378 0.5 33C0.5 28.622 2.67575 24.4031 6.71225 20.515C10.7501 16.6256 16.6194 13.1 23.913 10.1285C38.4977 4.1866 58.6808 0.5 81 0.5C103.319 0.5 123.502 4.1866 138.087 10.1285C145.381 13.1 151.25 16.6256 155.288 20.515C159.324 24.4031 161.5 28.622 161.5 33Z" stroke="#D9E8B8"/>
</svg>
