<svg width="162" height="66" viewBox="0 0 162 66" fill="none" xmlns="http://www.w3.org/2000/svg">
<path d="M43.24 24.584V42.128H54.208V44H41.296V24.584H43.24ZM62.4119 24.2C67.9559 24.2 71.5559 28.064 71.5559 34.304C71.5559 41.744 66.8279 44.408 62.4119 44.408C56.8439 44.408 53.2679 40.448 53.2679 34.304C53.2679 31.16 54.2039 28.568 55.9559 26.744C57.5879 25.088 59.8679 24.2 62.4119 24.2ZM62.4119 42.44C66.8999 42.44 69.5639 39.512 69.5639 34.304C69.5639 28.256 65.9159 26.168 62.4119 26.168C58.8839 26.168 55.2359 28.472 55.2359 34.304C55.2359 40.304 58.8839 42.44 62.4119 42.44ZM82.0056 36.32V34.424H89.9016V44H88.2216L87.9336 41.864C86.3496 43.496 84.1176 44.384 81.4776 44.384C75.9096 44.384 72.3336 40.424 72.3336 34.28C72.3336 31.16 73.2696 28.544 75.0216 26.744C76.6536 25.088 78.9336 24.176 81.4776 24.176C85.3896 24.176 88.5336 26.12 89.9016 30.44H87.8376C86.7096 27.368 84.0216 26.144 81.4776 26.144C77.9496 26.144 74.3016 28.424 74.3016 34.28C74.3016 40.352 78.2136 42.416 81.4776 42.416C84.0936 42.416 87.9336 41.336 87.9336 36.32H82.0056ZM102.09 44H100.122V24.584H102.09V44ZM118.635 44L106.155 26.84V44H104.187V24.584H106.947L119.403 41.744V24.584H121.371V44H118.635Z" fill="#D9E8B8"/>
<path d="M161.5 33C161.5 37.378 159.324 41.5969 155.288 45.485C151.25 49.3744 145.381 52.9 138.087 55.8715C123.502 61.8134 103.319 65.5 81 65.5C58.6808 65.5 38.4977 61.8134 23.913 55.8715C16.6194 52.9 10.7501 49.3744 6.71225 45.485C2.67575 41.5969 0.5 37.378 0.5 33C0.5 28.622 2.67575 24.4031 6.71225 20.515C10.7501 16.6256 16.6194 13.1 23.913 10.1285C38.4977 4.1866 58.6808 0.5 81 0.5C103.319 0.5 123.502 4.1866 138.087 10.1285C145.381 13.1 151.25 16.6256 155.288 20.515C159.324 24.4031 161.5 28.622 161.5 33Z" stroke="#D9E8B8"/>
</svg>
