<svg width="309" height="84" viewBox="0 0 309 84" fill="none" xmlns="http://www.w3.org/2000/svg">
<path d="M71.696 54.448C67.472 54.448 64.784 52.912 63.056 52.208C61.392 51.568 59.152 51.504 58.512 54H57.616L60.88 36.848L61.776 36.912C61.008 45.616 63.824 53.36 71.76 53.424C76.496 53.424 80.528 50.736 81.488 46.512C82.32 42.736 80.72 38.896 77.008 36.208L70.672 31.6C65.872 28.08 63.696 24.048 64.912 19.056C66.576 12.272 73.552 8.56 79.824 8.624C84.112 8.688 86.416 9.968 88.208 10.8C89.68 11.44 91.472 11.184 92.176 8.624H92.944L89.488 25.2L88.592 25.136C89.68 15.536 85.712 9.904 79.888 9.648C75.28 9.52 71.952 12.336 71.12 16.112C70.352 19.44 71.76 22.896 75.344 25.584L81.616 30.32C86.16 33.712 88.912 37.872 87.568 43.504C85.584 51.632 77.712 54.512 71.696 54.448ZM114.85 54.704C103.074 54.768 94.946 44.08 98.018 30.704C101.218 16.752 112.93 8.688 123.81 8.496C135.97 8.176 143.97 18.992 141.026 32.432C137.89 46.32 126.178 54.64 114.85 54.704ZM105.186 32.496C103.33 43.888 107.234 53.936 116.066 53.424C124.066 52.912 131.746 43.44 133.794 30.768C135.778 18.672 132.066 8.688 122.466 9.776C114.658 10.608 107.106 20.08 105.186 32.496ZM142.814 54V53.168C145.438 53.168 147.23 51.952 148.19 47.6L154.974 15.6C155.87 11.248 153.95 10.032 151.326 10.032V9.2H171.486C182.43 9.2 184.67 16.816 183.454 22.64C182.238 28.208 177.31 33.584 165.982 33.904C169.566 34.16 173.47 35.632 175.518 41.712L177.694 47.792C179.166 51.952 181.15 53.168 184.03 53.168V54H171.87L166.878 39.792C165.598 36.464 163.486 34.672 160.094 34.288L160.222 33.712C171.102 33.84 174.814 28.016 176.03 22.256C177.118 16.56 175.966 10.288 169.054 10.288H163.358L155.422 47.6C154.526 51.952 156.446 53.168 159.07 53.168V54H142.814ZM196.131 54V53.168C198.755 53.168 200.611 51.952 201.507 47.6L209.443 10.288H205.923C199.971 10.288 194.659 15.792 192.035 22.64L191.203 22.512L196.003 9.2H230.435L229.539 22.512L228.643 22.64C228.963 15.792 226.211 10.288 220.195 10.288H216.675L208.803 47.6C207.843 51.952 209.763 53.168 212.387 53.168V54H196.131ZM220.366 54V53.168C223.63 53.168 227.214 50.928 230.478 45.232L247.374 15.28C246.734 12.848 245.006 12.016 243.15 11.888V11.056C246.926 11.056 249.87 10.096 252.878 7.728L253.518 8.048L259.47 47.6C260.11 51.952 262.094 53.168 264.782 53.168V54H248.142V53.168C250.894 53.168 252.878 51.952 252.238 47.6L251.15 40.176H234.83L232.782 43.888C229.134 50.48 232.014 53.04 237.006 53.04V54H220.366ZM235.47 39.088H251.022L247.822 16.944L235.47 39.088Z" fill="#D9E8B8"/>
<line x1="-20" y1="83.5" x2="309" y2="83.5" stroke="#D9E8B8"/>
</svg>
