<svg width="208" height="48" viewBox="0 0 208 48" fill="none" xmlns="http://www.w3.org/2000/svg">
<path d="M14.696 47.448C10.472 47.448 7.784 45.912 6.056 45.208C4.392 44.568 2.152 44.504 1.512 47H0.616L3.88 29.848L4.776 29.912C4.008 38.616 6.824 46.36 14.76 46.424C19.496 46.424 23.528 43.736 24.488 39.512C25.32 35.736 23.72 31.896 20.008 29.208L13.672 24.6C8.872 21.08 6.696 17.048 7.912 12.056C9.576 5.272 16.552 1.56 22.824 1.624C27.112 1.688 29.416 2.968 31.208 3.8C32.68 4.44 34.472 4.184 35.176 1.624H35.944L32.488 18.2L31.592 18.136C32.68 8.536 28.712 2.904 22.888 2.648C18.28 2.52 14.952 5.336 14.12 9.112C13.352 12.44 14.76 15.896 18.344 18.584L24.616 23.32C29.16 26.712 31.912 30.872 30.568 36.504C28.584 44.632 20.712 47.512 14.696 47.448ZM57.85 47.704C46.074 47.768 37.946 37.08 41.018 23.704C44.218 9.752 55.93 1.688 66.81 1.496C78.97 1.176 86.97 11.992 84.026 25.432C80.89 39.32 69.178 47.64 57.85 47.704ZM48.186 25.496C46.33 36.888 50.234 46.936 59.066 46.424C67.066 45.912 74.746 36.44 76.794 23.768C78.778 11.672 75.066 1.688 65.466 2.776C57.658 3.608 50.106 13.08 48.186 25.496ZM85.814 47V46.168C88.438 46.168 90.23 44.952 91.19 40.6L97.974 8.6C98.87 4.248 96.95 3.032 94.326 3.032V2.2H114.486C125.43 2.2 127.67 9.816 126.454 15.64C125.238 21.208 120.31 26.584 108.982 26.904C112.566 27.16 116.47 28.632 118.518 34.712L120.694 40.792C122.166 44.952 124.15 46.168 127.03 46.168V47H114.87L109.878 32.792C108.598 29.464 106.486 27.672 103.094 27.288L103.222 26.712C114.102 26.84 117.814 21.016 119.03 15.256C120.118 9.56 118.966 3.288 112.054 3.288H106.358L98.422 40.6C97.526 44.952 99.446 46.168 102.07 46.168V47H85.814ZM139.131 47V46.168C141.755 46.168 143.611 44.952 144.507 40.6L152.443 3.288H148.923C142.971 3.288 137.659 8.792 135.035 15.64L134.203 15.512L139.003 2.2H173.435L172.539 15.512L171.643 15.64C171.963 8.792 169.211 3.288 163.195 3.288H159.675L151.803 40.6C150.843 44.952 152.763 46.168 155.387 46.168V47H139.131ZM163.366 47V46.168C166.63 46.168 170.214 43.928 173.478 38.232L190.374 8.28C189.734 5.848 188.006 5.016 186.15 4.888V4.056C189.926 4.056 192.87 3.096 195.878 0.727997L196.518 1.048L202.47 40.6C203.11 44.952 205.094 46.168 207.782 46.168V47H191.142V46.168C193.894 46.168 195.878 44.952 195.238 40.6L194.15 33.176H177.83L175.782 36.888C172.134 43.48 175.014 46.04 180.006 46.04V47H163.366ZM178.47 32.088H194.022L190.822 9.944L178.47 32.088Z" fill="#D9E8B8"/>
</svg>
