<svg width="737" height="49" viewBox="0 0 737 49" fill="none" xmlns="http://www.w3.org/2000/svg">
<path d="M29.856 8.6C29.216 4.248 27.424 3.032 24.992 3.032V2.2H41.632V3.032C38.816 3.032 36.704 4.248 37.344 8.6L41.568 37.336L55.968 11.032C59.104 5.272 56.672 3.032 52.512 3.032V2.2H67.616V3.032C64.288 3.032 60.704 5.272 57.504 10.968L36.64 48.28H35.808L30.944 15.768L12.704 48.28H11.808L5.984 8.6C5.28 4.248 3.488 3.032 0.864 3.032V2.2H17.376V3.032C14.752 3.032 12.832 4.248 13.472 8.6L17.568 37.4L30.624 13.528L29.856 8.6ZM52.39 47V46.168C55.654 46.168 59.238 43.928 62.502 38.232L79.398 8.28C78.758 5.848 77.03 5.016 75.174 4.888V4.056C78.95 4.056 81.894 3.096 84.902 0.727997L85.542 1.048L91.494 40.6C92.134 44.952 94.118 46.168 96.806 46.168V47H80.166V46.168C82.918 46.168 84.902 44.952 84.262 40.6L83.174 33.176H66.854L64.806 36.888C61.158 43.48 64.038 46.04 69.03 46.04V47H52.39ZM67.494 32.088H83.046L79.846 9.944L67.494 32.088ZM101.753 47V46.168C104.313 46.168 106.169 44.952 107.065 40.6L113.849 8.6C114.745 4.248 112.825 3.032 110.201 3.032V2.2H126.649V3.032C124.025 3.032 122.169 4.248 121.273 8.6L114.553 40.6C113.657 44.952 115.577 46.168 118.137 46.168V47H101.753ZM134.381 47V46.168C137.005 46.168 138.861 44.952 139.757 40.6L147.693 3.288H144.173C138.221 3.288 132.909 8.792 130.285 15.64L129.453 15.512L134.253 2.2H168.685L167.789 15.512L166.893 15.64C167.213 8.792 164.461 3.288 158.445 3.288H154.925L147.053 40.6C146.093 44.952 148.013 46.168 150.637 46.168V47H134.381ZM167.237 47V46.168C169.797 46.168 171.653 44.952 172.549 40.6L179.333 8.6C180.229 4.248 178.309 3.032 175.685 3.032V2.2H192.133V3.032C189.509 3.032 187.653 4.248 186.757 8.6L180.037 40.6C179.141 44.952 181.061 46.168 183.621 46.168V47H167.237ZM189.242 47V46.168C192.89 46.168 196.282 43.736 197.626 37.336L203.002 11.864C204.346 5.464 201.85 3.032 198.202 3.032V2.2H208.186L228.602 35.928L233.722 11.864C235.066 5.464 232.378 3.032 228.538 3.032V2.2H243.45V3.032C239.802 3.032 236.474 5.464 235.13 11.864L227.706 47H226.618L204.538 11.48L199.034 37.336C197.626 43.736 200.762 46.168 205.178 46.168V47H189.242ZM261.865 47.704C248.361 47.704 239.657 37.72 242.729 23.192C245.417 10.52 256.617 1.432 270.441 1.432C275.305 1.432 278.697 3.288 280.233 3.864C281.065 4.184 282.089 4.504 282.985 4.376C284.329 4.184 285.097 2.904 285.545 1.368H286.505L284.073 18.584H283.177C283.113 9.752 277.929 2.392 270.633 2.392C261.481 2.392 252.969 12.44 250.857 23.064C248.425 35.736 253.673 46.616 263.017 46.616C267.369 46.616 272.297 43.864 273.897 36.312L274.473 33.432C275.369 29.08 272.745 27.864 269.097 27.864V27.032L285.545 27.096V27.928C283.625 27.928 282.217 29.144 281.321 33.496L278.377 47.384L277.673 47.448L276.009 43.48C271.977 46.04 267.433 47.704 261.865 47.704ZM306.516 47V46.168C309.076 46.168 310.932 44.952 311.828 40.6L318.676 8.6C319.572 4.248 317.652 3.032 315.028 3.032V2.2H346.9L344.724 15.448H343.828C344.148 7.192 342.356 3.288 335.892 3.288H327.06L322.516 24.536H329.556C333.716 24.536 336.084 22.68 337.236 17.112H338.068L334.612 33.176H333.78C334.996 27.608 333.524 25.624 329.236 25.624H322.324L319.124 40.6C318.228 44.952 320.532 46.168 323.668 46.168V47H306.516ZM366.536 47.704C354.76 47.768 346.632 37.08 349.704 23.704C352.904 9.752 364.616 1.688 375.496 1.496C387.656 1.176 395.656 11.992 392.712 25.432C389.576 39.32 377.864 47.64 366.536 47.704ZM356.872 25.496C355.016 36.888 358.92 46.936 367.752 46.424C375.752 45.912 383.432 36.44 385.48 23.768C387.464 11.672 383.752 1.688 374.152 2.776C366.344 3.608 358.792 13.08 356.872 25.496ZM394.5 47V46.168C397.124 46.168 398.916 44.952 399.876 40.6L406.66 8.6C407.556 4.248 405.636 3.032 403.012 3.032V2.2H423.172C434.116 2.2 436.356 9.816 435.14 15.64C433.924 21.208 428.996 26.584 417.668 26.904C421.252 27.16 425.156 28.632 427.204 34.712L429.38 40.792C430.852 44.952 432.836 46.168 435.716 46.168V47H423.556L418.564 32.792C417.284 29.464 415.172 27.672 411.78 27.288L411.908 26.712C422.788 26.84 426.5 21.016 427.716 15.256C428.804 9.56 427.652 3.288 420.74 3.288H415.044L407.108 40.6C406.212 44.952 408.132 46.168 410.756 46.168V47H394.5ZM457.796 47V46.168C460.42 46.168 462.212 44.952 463.172 40.6L469.956 8.6C470.852 4.248 468.932 3.032 466.308 3.032V2.2H484.548C497.86 2.2 500.42 10.2 499.076 16.856C497.604 23.768 492.036 30.488 475.076 29.784L475.268 29.08C485.764 29.72 490.372 23.512 491.652 16.92C492.868 10.648 491.14 3.288 482.564 3.288H478.34L470.404 40.6C469.508 44.952 472.196 46.168 475.844 46.168V47H457.796ZM498.415 47V46.168C500.975 46.168 502.831 44.952 503.727 40.6L510.511 8.6C511.407 4.248 509.487 3.032 506.863 3.032V2.2H523.311V3.032C520.687 3.032 518.831 4.248 517.935 8.6L511.215 40.6C510.319 44.952 512.239 46.168 514.799 46.168V47H498.415ZM546.873 47V46.168C549.497 46.168 551.417 44.952 549.753 40.856L543.865 26.456L534.201 38.936C530.233 44.056 532.089 46.168 535.929 46.168V47H520.313V46.168C524.153 46.168 528.441 44.12 532.473 39L543.353 25.176L536.505 8.344C534.777 4.248 532.985 3.032 530.425 3.032V2.2H547.577V3.032C545.017 3.032 543.033 4.248 544.697 8.344L550.201 21.784L559.097 10.328C563.065 5.144 561.209 3.032 557.369 3.032V2.2H572.985V3.032C569.145 3.032 564.857 5.08 560.825 10.264L550.777 23.064L558.073 40.856C559.737 44.952 561.721 46.168 564.537 46.168V47H546.873ZM570.648 47V46.168C573.272 46.168 575.064 44.952 576.024 40.6L582.808 8.6C583.704 4.248 581.784 3.032 579.16 3.032V2.2H611.16L610.136 15.448L609.368 15.512C609.688 7.32 606.936 3.288 600.152 3.288H591.256L586.904 23.64H594.008C598.168 23.64 600.472 21.976 601.688 16.408H602.52L599.064 32.792H598.232C599.384 26.904 597.912 24.728 593.688 24.728H586.712L582.936 42.456C582.424 44.824 582.808 45.912 585.56 45.912H592.024C598.936 45.912 604.632 41.368 608.28 33.56L608.984 33.688L603.864 47H570.648ZM612.39 47V46.168C615.014 46.168 616.806 44.952 617.766 40.6L624.55 8.6C625.446 4.248 623.526 3.032 620.902 3.032V2.2H637.158V3.032C634.534 3.032 632.742 4.248 631.782 8.6L624.742 41.816C624.102 44.76 624.742 45.912 627.11 45.912H630.95C638.438 45.912 643.686 42.072 647.782 33.752L648.55 33.944L642.918 47H612.39ZM667.123 47.448C662.899 47.448 660.211 45.912 658.483 45.208C656.819 44.568 654.579 44.504 653.939 47H653.043L656.307 29.848L657.203 29.912C656.435 38.616 659.251 46.36 667.187 46.424C671.923 46.424 675.955 43.736 676.915 39.512C677.747 35.736 676.147 31.896 672.435 29.208L666.099 24.6C661.299 21.08 659.123 17.048 660.339 12.056C662.003 5.272 668.979 1.56 675.251 1.624C679.539 1.688 681.843 2.968 683.635 3.8C685.107 4.44 686.899 4.184 687.603 1.624H688.371L684.915 18.2L684.019 18.136C685.107 8.536 681.139 2.904 675.315 2.648C670.707 2.52 667.379 5.336 666.547 9.112C665.779 12.44 667.187 15.896 670.771 18.584L677.043 23.32C681.587 26.712 684.339 30.872 682.995 36.504C681.011 44.632 673.139 47.512 667.123 47.448ZM694.132 47.512C691.572 47.512 689.972 45.592 690.228 43.032C690.42 40.6 692.34 38.744 694.9 38.744C697.524 38.744 699.06 40.6 698.868 43.032C698.612 45.592 696.692 47.512 694.132 47.512ZM712.687 47.512C710.127 47.512 708.527 45.592 708.783 43.032C708.975 40.6 710.895 38.744 713.455 38.744C716.079 38.744 717.615 40.6 717.423 43.032C717.167 45.592 715.247 47.512 712.687 47.512ZM731.241 47.512C728.681 47.512 727.081 45.592 727.337 43.032C727.529 40.6 729.449 38.744 732.009 38.744C734.633 38.744 736.169 40.6 735.977 43.032C735.721 45.592 733.801 47.512 731.241 47.512Z" fill="#D9E8B8"/>
</svg>
